<?xml version="1.0" encoding="UTF-8"?><svg id="Layer_1" xmlns="http://www.w3.org/2000/svg" viewBox="0 0 362.72 322"><defs><style>.cls-1,.cls-2,.cls-3,.cls-4,.cls-5{fill:none;}.cls-2{stroke-width:.37px;}.cls-2,.cls-3,.cls-4,.cls-5{stroke:#000;}.cls-3{stroke-width:.37px;}.cls-4{stroke-width:.37px;}.cls-5{stroke-width:.37px;}</style></defs><g id="_그룹_27"><g id="_사각형_8179"><rect class="cls-1" x="0" width="362.72" height="322"/><rect class="cls-5" x=".19" y=".19" width="362.35" height="321.63"/></g></g><g id="_그룹_50"><g id="_사각형_8202"><rect class="cls-1" x="69.91" width="197.65" height="201.72"/><rect class="cls-2" x="70.09" y=".19" width="197.28" height="201.34"/></g><g id="_사각형_8203"><rect class="cls-1" x="0" width="145.31" height="131.86"/><rect class="cls-2" x=".18" y=".19" width="144.94" height="131.49"/></g><g id="_사각형_8208"><rect class="cls-1" x="144.94" y="131.49" width="79.79" height="70.23"/><rect class="cls-2" x="145.13" y="131.68" width="79.42" height="69.85"/></g><g id="_사각형_8204"><polyline class="cls-1" points=".37 0 362.72 0 362.72 173.33 .37 173.33"/><polyline class="cls-4" points=".56 .19 362.53 .19 362.53 173.14 .56 173.14"/></g><g id="_패스_133"><path class="cls-1" d="M224.73,0h137.99V92.64H224.73V0Z"/><path d="M225.1,.37V92.27h137.25V.37H225.1m-.37-.37h137.99V92.64H224.73V0Z"/></g><g id="_사각형_8205"><rect class="cls-1" x="69.91" y="92.27" width="171.66" height="229.73"/><rect class="cls-2" x="70.09" y="92.45" width="171.29" height="229.36"/></g><g id="_사각형_8207"><rect class="cls-1" x="305.62" y="242.06" width="57.1" height="79.94"/><rect class="cls-2" x="305.8" y="242.25" width="56.73" height="79.57"/></g><g id="_사각형_8209"><rect class="cls-1" x="267.19" y="201.34" width="38.8" height="41.09"/><rect class="cls-2" x="267.37" y="201.53" width="38.43" height="40.72"/></g><g id="_사각형_8206"><rect class="cls-1" x="0" y="201.34" width="70.27" height="120.66"/><rect class="cls-3" x=".19" y="201.53" width="69.91" height="120.28"/></g></g></svg>