<?xml version="1.0" encoding="utf-8"?>
<!-- Generator: Adobe Illustrator 26.5.0, SVG Export Plug-In . SVG Version: 6.00 Build 0)  -->
<svg version="1.1" id="Layer_1" xmlns="http://www.w3.org/2000/svg" xmlns:xlink="http://www.w3.org/1999/xlink" x="0px" y="0px"
	 viewBox="0 0 534.1 235.9" style="enable-background:new 0 0 534.1 235.9;" xml:space="preserve">
<style type="text/css">
	.st0{fill:none;}
	.st1{font-family:'Helvetica';}
	.st2{font-size:62.0005px;}
	.st3{letter-spacing:-1;}
	.st4{font-size:20.3303px;}
	.st5{fill:none;stroke:#000000;stroke-width:0.5;stroke-miterlimit:10;}
</style>
<path class="st0" d="M360.7,70.3"/>
<polyline class="st0" points="262.9,70.3 0.4,70.3 0.4,227.8 519,228.2 519,189.9 533.7,189.9 533.7,171.7 482.2,171.7 482.2,186.9 
	293.7,186.9 293.7,145.6 359.9,145.6 359.9,111.8 "/>
<polyline class="st0" points="360.4,69.9 360.4,31.3 353.7,31.3 353.7,18.8 244.9,18.8 244.9,42.6 263.2,42.6 263.2,69.9 "/>
<polyline points="359.9,111.8 359.9,145.6 293.7,145.6 293.7,186.9 482.2,186.9 482.2,171.7 533.7,171.7 533.7,189.9 519,189.9 
	519,228.2 0.4,227.8 0.4,70.3 262.9,70.3 262.9,69.9 0,69.9 0,228.2 519.4,228.6 519.4,190.3 534.1,190.3 534.1,171.3 481.8,171.3 
	481.8,186.4 294.2,186.4 294.2,146 360.4,146 360.4,112.2 "/>
<line x1="360.7" y1="69.9" x2="360.7" y2="70.3"/>
<rect x="262.9" y="69.9" width="0.3" height="0.4"/>
<rect x="360.4" y="69.9" width="0.3" height="0.4"/>
<text transform="matrix(1 0 0 1 16.8663 138.3499)" class="st1 st2 st3">Georges </text>
<text transform="matrix(1 0 0 1 16.8663 202.6467)" class="st1 st2 st3">Perec</text>
<text transform="matrix(1 0 0 1 396.0401 216.3845)" class="st1 st4">1936 - 1982</text>
<path class="st5" d="M370.9,151.4"/>
<path class="st5" d="M372.7,123.2"/>
<polyline class="st5" points="263.2,70.3 263.2,48.7 360.7,48.7 360.7,69.9 360.2,112.1 "/>
<path class="st5" d="M211.1,228"/>
<rect x="408.9" y="109.5" class="st5" width="73" height="61.8"/>
<rect x="482" y="47.7" class="st5" width="49.5" height="61.8"/>
<rect x="432.5" y="20.6" class="st5" width="49.5" height="27.1"/>
</svg>
