<?xml version="1.0" encoding="utf-8"?>
<!-- Generator: Adobe Illustrator 26.5.0, SVG Export Plug-In . SVG Version: 6.00 Build 0)  -->
<svg version="1.1" id="Layer_1" xmlns="http://www.w3.org/2000/svg" xmlns:xlink="http://www.w3.org/1999/xlink" x="0px" y="0px"
	 viewBox="0 0 302 103.8" style="enable-background:new 0 0 302 103.8;" xml:space="preserve">
<style type="text/css">
	.st0{fill:none;}
	.st1{font-family:'Helvetica';}
	.st2{font-size:43.8281px;}
	.st3{letter-spacing:-1;}
	.st4{font-family:'AppleSDGothicNeo-Bold-KSCpc-EUC-H';}
	.st5{font-size:12.04px;}
</style>
<g id="_합치기_13">
	<path class="st0" d="M0,86.2v-68h140.7V0H302v26.2h-11.5v45.4H301v32.2H69.8V86.2H16.2l0,0H0z"/>
	<path d="M15.7,85.7L15.7,85.7h54.6v17.7h230.2V72.1H290V25.8h11.5V0.5H141.2v18.1H0.5v67.1H15.7 M16.2,86.2H0V18.1h140.7V0H302
		v26.2h-11.5v45.4H301v32.2H69.8V86.2H16.2L16.2,86.2L16.2,86.2L16.2,86.2z"/>
</g>
<text transform="matrix(1 0 0 1 11.6113 69.5921)" class="st1 st2 st3">La campagne</text>
<g>
	<text transform="matrix(1 0 0 1 267.7067 95.3295)" class="st4 st5">시골</text>
</g>
</svg>
