<?xml version="1.0" encoding="utf-8"?>
<!-- Generator: Adobe Illustrator 26.5.0, SVG Export Plug-In . SVG Version: 6.00 Build 0)  -->
<svg version="1.1" id="Layer_1" xmlns="http://www.w3.org/2000/svg" xmlns:xlink="http://www.w3.org/1999/xlink" x="0px" y="0px"
	 viewBox="0 0 310.6 93.7" style="enable-background:new 0 0 310.6 93.7;" xml:space="preserve">
<style type="text/css">
	.st0{font-family:'Helvetica';}
	.st1{font-size:47.57px;}
	.st2{letter-spacing:-2;}
	.st3{fill:none;}
	.st4{font-family:'AppleSDGothicNeo-Bold-KSCpc-EUC-H';}
	.st5{font-size:12.041px;}
</style>
<text transform="matrix(1 0 0 1 9.51 53.28)" class="st0 st1 st2">La Chambre</text>
<g id="_합치기_13">
	<path class="st3" d="M0,93.7V4.3h279.7V0h12.4v12.4h-3.8v30.9h22.4v42.8h-37.1V72.3h-254v21.4C19.5,93.7,0,93.7,0,93.7z"/>
	<path d="M19,93.2V71.8h255v13.8h36.1V43.8h-22.4V11.9h3.8V0.5h-11.4v4.3H0.5v88.5H19 M19.5,93.7H0V4.3h279.7V0h12.4v12.4h-3.8v30.9
		h22.4v42.8h-37.1V72.3h-254L19.5,93.7L19.5,93.7z"/>
</g>
<text transform="matrix(1 0 0 1 287.9018 68.93)" class="st4 st5">방</text>
</svg>
