<?xml version="1.0" encoding="utf-8"?>
<!-- Generator: Adobe Illustrator 26.5.0, SVG Export Plug-In . SVG Version: 6.00 Build 0)  -->
<svg version="1.1" id="Layer_1" xmlns="http://www.w3.org/2000/svg" xmlns:xlink="http://www.w3.org/1999/xlink" x="0px" y="0px"
	 viewBox="0 0 304 103.8" style="enable-background:new 0 0 304 103.8;" xml:space="preserve">
<style type="text/css">
	.st0{fill:none;}
	.st1{fill:none;stroke:#000000;stroke-width:0.5;stroke-miterlimit:10;}
	.st2{font-family:'Helvetica';}
	.st3{font-size:47.57px;}
	.st4{letter-spacing:-1;}
	.st5{font-family:'AppleSDGothicNeo-Bold-KSCpc-EUC-H';}
	.st6{font-size:12.04px;}
</style>
<g id="_합치기_13">
	<path class="st0" d="M0,86.2v-68h37.7V0h249.6v12.2h-43.9v59.5h32.4v32.2H69.8V86.2H16.2l0,0H0z"/>
	<path d="M15.7,85.7L15.7,85.7h54.6v17.7h205V72.1h-32.5V11.7h44V0.5H38.2v18.1H0.5v67.1H15.7 M16.2,86.2H0V18.1h37.7V0h249.6v12.2
		h-43.9v59.5h32.4v32.2H69.8V86.2H16.2L16.2,86.2L16.2,86.2L16.2,86.2z"/>
</g>
<rect x="275.5" y="32" class="st1" width="16.5" height="39.8"/>
<rect x="292" y="12" class="st1" width="11.6" height="20.1"/>
<text transform="matrix(1 0 0 1 11.6115 68.2274)" class="st2 st3 st4">Le monde</text>
<g>
	<text transform="matrix(1 0 0 1 224.3574 91.6962)" class="st5 st6">세계</text>
</g>
</svg>
