<?xml version="1.0" encoding="utf-8"?>
<!-- Generator: Adobe Illustrator 26.5.0, SVG Export Plug-In . SVG Version: 6.00 Build 0)  -->
<svg version="1.1" id="Layer_1" xmlns="http://www.w3.org/2000/svg" xmlns:xlink="http://www.w3.org/1999/xlink" x="0px" y="0px"
	 viewBox="0 0 314 89.1" style="enable-background:new 0 0 314 89.1;" xml:space="preserve">
<style type="text/css">
	.st0{fill:none;}
	.st1{enable-background:new    ;}
</style>
<g id="_그룹_67">
	<g id="_합치기_8">
		<path class="st0" d="M0,89.1V12.5h204.3v30.4h44v-31h55.4V0H314v12.5h-9.8v30.4h9.8v15.8h-35.3V43.5h-29.9v31h-44.6v14.7L0,89.1
			L0,89.1z"/>
		<path d="M203.7,88.6V73.9h44.6V43.5h-44.6V13H0.5v75.5H203.7 M313.5,58.1V43.5h-9.8v-31h-54.9v30.4h30.4v15.2H313.5 M313.5,11.9
			V0.5h-9.2v11.4L313.5,11.9 M204.3,89.1H0V12.5h204.3v30.4h44v-31h55.4V0H314v12.5h-9.8v30.4h9.8v15.8h-35.3V43.5h-29.9v31h-44.6
			V89.1L204.3,89.1z"/>
	</g>
</g>
<g class="st1">
	<path d="M207.1,61.6c-0.1-0.4-0.1-0.9-0.2-1.3h1.1c-0.1-1.4-0.2-2.8-0.3-4.3c0.5-0.1,1-0.1,1.5-0.2c0,1.5,0.1,2.9,0.2,4.4l0.8,0
		c0.1-1.4,0.1-2.9,0.2-4.4l1.4,0.2c-0.1,1.4-0.2,2.8-0.3,4.1c0.4,0,0.7-0.1,1-0.1l0.1,1.2C210.9,61.6,209.2,61.6,207.1,61.6z
		 M207.2,55.2V54h5.4v1.2H207.2z M213.4,63.7v-5.3h-1.2v-1.2h1.2v-4.3h1.4v10.9H213.4z M215.6,64.3V52.6h1.4v11.6H215.6z"/>
	<path d="M220.7,53.4c1.9,0,3,1.7,3,4.2c0,2.4-1.1,4.1-3,4.1c-1.9,0-3-1.7-3-4.1C217.7,55.2,218.8,53.4,220.7,53.4z M220.7,54.7
		c-0.9,0-1.5,1.1-1.5,2.9c0,1.8,0.6,2.9,1.5,2.9c0.9,0,1.6-1.1,1.6-2.9C222.2,55.8,221.6,54.7,220.7,54.7z M225.5,64.3V52.6h1.5
		v11.6H225.5z"/>
	<path d="M234,61.5c-1-0.5-2.5-2-2.8-3.1c-0.3,1.2-1.4,2.7-2.8,3.4l-0.9-1.1c2-1,2.9-2.8,2.9-5.3V55h-2.3v-1.2h6.2V55H232v0.3
		c0,2.5,1.1,4.1,2.9,5L234,61.5z M235.7,64.3V52.6h1.5v11.6H235.7z"/>
</g>
<g class="st1">
	<path d="M13.7,26.8H19v34.3h19.6v4.6H13.7V26.8z"/>
	<path d="M55.8,48.6c1.1-0.1,1.8-0.6,2.2-1.4c0.2-0.4,0.3-1,0.3-1.8c0-1.6-0.6-2.8-1.7-3.6c-1.2-0.7-2.8-1.1-5-1.1
		c-2.5,0-4.3,0.7-5.3,2c-0.6,0.7-1,1.9-1.1,3.3h-4.5c0.1-3.5,1.2-6,3.4-7.3s4.7-2.1,7.6-2.1c3.3,0,6.1,0.6,8.1,1.9
		c2.1,1.3,3.1,3.3,3.1,5.9v16.4c0,0.5,0.1,0.9,0.3,1.2c0.2,0.3,0.6,0.5,1.3,0.5c0.2,0,0.5,0,0.7,0s0.5-0.1,0.8-0.1v3.5
		c-0.7,0.2-1.3,0.3-1.7,0.4c-0.4,0.1-0.9,0.1-1.6,0.1c-1.6,0-2.8-0.6-3.6-1.8c-0.4-0.6-0.7-1.5-0.8-2.6c-1,1.3-2.4,2.4-4.2,3.3
		c-1.8,0.9-3.8,1.4-6,1.4c-2.6,0-4.8-0.8-6.5-2.4c-1.7-1.6-2.5-3.6-2.5-6c0-2.6,0.8-4.7,2.5-6.1c1.6-1.4,3.8-2.3,6.5-2.7L55.8,48.6z
		 M45.7,61.5c1,0.8,2.2,1.2,3.6,1.2c1.7,0,3.3-0.4,4.9-1.2c2.7-1.3,4-3.4,4-6.3v-3.8c-0.6,0.4-1.3,0.7-2.2,0.9
		c-0.9,0.2-1.8,0.4-2.7,0.5l-2.9,0.4c-1.7,0.2-3,0.6-3.9,1.1c-1.5,0.8-2.2,2.2-2.2,4C44.2,59.6,44.7,60.7,45.7,61.5z"/>
</g>
<g class="st1">
	<path d="M81.6,26.8H99c3.4,0,6.2,1,8.4,2.9c2.1,2,3.2,4.7,3.2,8.2c0,3-0.9,5.7-2.8,7.9c-1.9,2.3-4.8,3.4-8.7,3.4H86.8v16.5h-5.3
		V26.8z M102,32.1c-1.2-0.5-2.7-0.8-4.8-0.8H86.8v13.5h10.4c2.4,0,4.3-0.5,5.7-1.5c1.5-1,2.2-2.8,2.2-5.3
		C105.2,35.1,104.1,33.2,102,32.1z"/>
</g>
<g class="st1">
	<path d="M127,48.6c1.1-0.1,1.8-0.6,2.2-1.4c0.2-0.4,0.3-1,0.3-1.8c0-1.6-0.6-2.8-1.7-3.6c-1.2-0.7-2.8-1.1-5-1.1
		c-2.5,0-4.3,0.7-5.3,2c-0.6,0.7-1,1.9-1.1,3.3h-4.5c0.1-3.5,1.2-6,3.4-7.3s4.7-2.1,7.6-2.1c3.3,0,6.1,0.6,8.1,1.9
		c2.1,1.3,3.1,3.3,3.1,5.9v16.4c0,0.5,0.1,0.9,0.3,1.2c0.2,0.3,0.6,0.5,1.3,0.5c0.2,0,0.5,0,0.7,0s0.5-0.1,0.8-0.1v3.5
		c-0.7,0.2-1.3,0.3-1.7,0.4c-0.4,0.1-0.9,0.1-1.6,0.1c-1.6,0-2.8-0.6-3.6-1.8c-0.4-0.6-0.7-1.5-0.8-2.6c-1,1.3-2.4,2.4-4.2,3.3
		c-1.8,0.9-3.8,1.4-6,1.4c-2.6,0-4.8-0.8-6.5-2.4c-1.7-1.6-2.5-3.6-2.5-6c0-2.6,0.8-4.7,2.5-6.1c1.6-1.4,3.8-2.3,6.5-2.7L127,48.6z
		 M116.9,61.5c1,0.8,2.2,1.2,3.6,1.2c1.7,0,3.3-0.4,4.9-1.2c2.7-1.3,4-3.4,4-6.3v-3.8c-0.6,0.4-1.3,0.7-2.3,0.9
		c-0.9,0.2-1.8,0.4-2.7,0.5l-2.9,0.4c-1.7,0.2-3,0.6-3.9,1.1c-1.5,0.8-2.2,2.2-2.2,4C115.4,59.6,115.9,60.7,116.9,61.5z"/>
	<path d="M155.1,38.5c0.9,0.6,1.8,1.5,2.7,2.7v-3.6h4.4v25.8c0,3.6-0.5,6.5-1.6,8.5c-2,3.9-5.7,5.8-11.2,5.8c-3,0-5.6-0.7-7.7-2.1
		s-3.2-3.5-3.5-6.4h4.9c0.2,1.3,0.7,2.3,1.4,2.9c1.1,1.1,2.8,1.6,5.1,1.6c3.6,0,6-1.3,7.1-3.9c0.7-1.5,1-4.2,0.9-8.1
		c-1,1.5-2.1,2.5-3.4,3.2c-1.3,0.7-3.1,1.1-5.3,1.1c-3.1,0-5.7-1.1-8-3.3c-2.3-2.2-3.4-5.8-3.4-10.8c0-4.8,1.2-8.5,3.5-11.1
		c2.3-2.7,5.1-4,8.4-4C151.5,36.8,153.4,37.4,155.1,38.5z M155.6,43.6c-1.4-1.7-3.3-2.5-5.5-2.5c-3.3,0-5.6,1.6-6.9,4.7
		c-0.7,1.7-1,3.9-1,6.6c0,3.2,0.6,5.6,1.9,7.3c1.3,1.7,3,2.5,5.2,2.5c3.4,0,5.8-1.5,7.2-4.6c0.8-1.8,1.2-3.8,1.2-6.1
		C157.8,47.9,157.1,45.3,155.6,43.6z"/>
	<path d="M184.3,38.1c1.9,0.9,3.3,2.2,4.3,3.7c0.9,1.4,1.6,3.1,1.9,5c0.3,1.3,0.4,3.4,0.4,6.3h-20.7c0.1,2.9,0.8,5.2,2,7
		c1.3,1.7,3.2,2.6,5.9,2.6c2.5,0,4.4-0.8,5.9-2.5c0.8-1,1.4-2.1,1.8-3.3h4.7c-0.1,1-0.5,2.2-1.2,3.5c-0.7,1.3-1.5,2.3-2.3,3.1
		c-1.4,1.4-3.2,2.4-5.3,2.9c-1.1,0.3-2.4,0.4-3.9,0.4c-3.5,0-6.5-1.3-8.9-3.9c-2.4-2.6-3.7-6.2-3.7-10.8c0-4.6,1.2-8.3,3.7-11.1
		c2.5-2.8,5.7-4.3,9.6-4.3C180.5,36.7,182.4,37.2,184.3,38.1z M186,49.3c-0.2-2.1-0.6-3.7-1.3-5c-1.3-2.3-3.5-3.4-6.5-3.4
		c-2.2,0-4,0.8-5.5,2.4c-1.5,1.6-2.3,3.6-2.3,6H186z"/>
</g>
</svg>
