<?xml version="1.0" encoding="utf-8"?>
<!-- Generator: Adobe Illustrator 26.5.0, SVG Export Plug-In . SVG Version: 6.00 Build 0)  -->
<svg version="1.1" id="Layer_1" xmlns="http://www.w3.org/2000/svg" xmlns:xlink="http://www.w3.org/1999/xlink" x="0px" y="0px"
	 viewBox="0 0 304 103.8" style="enable-background:new 0 0 304 103.8;" xml:space="preserve">
<style type="text/css">
	.st0{fill:none;}
	.st1{fill:none;stroke:#000000;stroke-width:0.5;stroke-miterlimit:10;}
	.st2{font-family:'Helvetica';}
	.st3{font-size:47.57px;}
	.st4{letter-spacing:-1;}
	.st5{font-family:'AppleSDGothicNeo-Bold-KSCpc-EUC-H';}
	.st6{font-size:12.04px;}
</style>
<g id="_합치기_13">
	<path class="st0" d="M0,86.2v-68h140.7V0H218v57.9h-22.4v13.8h45.2v32.2h-171V86.2H16.2l0,0H0z"/>
	<path d="M15.7,85.7L15.7,85.7h54.6v17.7h170V72.1h-45.2V57.4h22.4V0.5h-76.3v18.1H0.5v67.1H15.7 M16.2,86.2H0V18.1h140.7V0H218
		v57.9h-22.4v13.8h45.2v32.2h-171V86.2H16.2L16.2,86.2L16.2,86.2L16.2,86.2z"/>
</g>
<rect x="240.6" y="32" class="st1" width="39.8" height="39.8"/>
<rect x="280.4" y="12" class="st1" width="23.3" height="20.1"/>
<text transform="matrix(1 0 0 1 11.6115 66.503)" class="st2 st3 st4">La pays</text>
<g>
	<text transform="matrix(1 0 0 1 206.8359 93.2186)" class="st5 st6">나라</text>
</g>
</svg>
