<?xml version="1.0" encoding="utf-8"?>
<!-- Generator: Adobe Illustrator 26.5.0, SVG Export Plug-In . SVG Version: 6.00 Build 0)  -->
<svg version="1.1" id="Layer_1" xmlns="http://www.w3.org/2000/svg" xmlns:xlink="http://www.w3.org/1999/xlink" x="0px" y="0px"
	 viewBox="0 0 306.9 91.5" style="enable-background:new 0 0 306.9 91.5;" xml:space="preserve">
<style type="text/css">
	.st0{fill:none;}
	.st1{font-family:'AppleSDGothicNeo-Bold-KSCpc-EUC-H';}
	.st2{font-size:12.04px;}
	.st3{enable-background:new    ;}
	.st4{font-family:'Helvetica';}
	.st5{font-size:47.57px;}
	.st6{letter-spacing:-2;}
	.st7{letter-spacing:1;}
</style>
<g id="_합치기_13">
	<path class="st0" d="M0,71.8v-68h276.4V0h30.5v11.9h-13.3v30.9H306v48.7H190V71.8H16.2v0C16.2,71.8,0,71.8,0,71.8z"/>
	<path d="M15.7,71.4L15.7,71.4l174.7,0V91h115.1V43.3h-12.4V11.4h13.3V0.5h-29.5v3.8H0.5v67.1H15.7 M16.2,71.9H0V3.8h276.4V0h30.5
		v11.9h-13.3v30.9H306v48.7H190V71.8L16.2,71.9L16.2,71.9L16.2,71.9L16.2,71.9z"/>
</g>
<text transform="matrix(1 0 0 1 267.97 84.45)" class="st1 st2">아파트</text>
<text transform="matrix(1 0 0 1 9.51 52.2794)" class="st3"><tspan x="0" y="0" class="st4 st5 st6">L</tspan><tspan x="24.1" y="0" class="st4 st5">’appa</tspan><tspan x="138.6" y="0" class="st4 st5 st7">r</tspan><tspan x="155.9" y="0" class="st4 st5">tm</tspan><tspan x="207.1" y="0" class="st4 st5">ent</tspan></text>
</svg>
