<?xml version="1.0" encoding="utf-8"?>
<!-- Generator: Adobe Illustrator 26.5.0, SVG Export Plug-In . SVG Version: 6.00 Build 0)  -->
<svg version="1.1" id="Layer_1" xmlns="http://www.w3.org/2000/svg" xmlns:xlink="http://www.w3.org/1999/xlink" x="0px" y="0px"
	 viewBox="0 0 302.7 111.5" style="enable-background:new 0 0 302.7 111.5;" xml:space="preserve">
<style type="text/css">
	.st0{fill:none;}
	.st1{fill:none;stroke:#000000;stroke-width:0.5;stroke-miterlimit:10;}
	.st2{fill:none;stroke:#000000;stroke-width:0.35;stroke-miterlimit:10;}
	.st3{fill:none;stroke:#000000;stroke-width:0.25;stroke-miterlimit:10;}
	.st4{font-family:'AppleSDGothicNeo-Bold-KSCpc-EUC-H';}
	.st5{font-size:12.04px;}
	.st6{font-family:'Helvetica';}
	.st7{font-size:47.57px;}
	.st8{letter-spacing:-2;}
</style>
<g id="_합치기_13">
	<path class="st0" d="M0,91.8V23.8h255.5V0h-88.3v49.9h-13.3v34.7h39.8v26.9h-53.3V91.8H16.2v0L0,91.8L0,91.8z"/>
	<path d="M15.7,91.4L15.7,91.4l125.1,0V111h52.3v-26h-39.8V49.4h13.3V0.5H256v23.8H0.5v67.1H15.7 M16.2,91.9H0V23.8h255.5V0h-88.3
		v49.9h-13.3v34.7h39.8v26.9h-53.3V91.8L16.2,91.9L16.2,91.9L16.2,91.9L16.2,91.9z"/>
</g>
<rect x="206.7" y="53.1" class="st1" width="36.8" height="31.8"/>
<rect x="256" y="24.1" class="st2" width="18.4" height="31.8"/>
<rect x="284.2" y="90.4" class="st3" width="18.4" height="15.9"/>
<text transform="matrix(1 0 0 1 160.5254 103.519)" class="st4 st5">거리</text>
<text transform="matrix(1 0 0 1 9.51 77.5283)" class="st6 st7 st8">La rue</text>
</svg>
