<?xml version="1.0" encoding="utf-8"?>
<!-- Generator: Adobe Illustrator 26.5.0, SVG Export Plug-In . SVG Version: 6.00 Build 0)  -->
<svg version="1.1" id="Layer_1" xmlns="http://www.w3.org/2000/svg" xmlns:xlink="http://www.w3.org/1999/xlink" x="0px" y="0px"
	 viewBox="0 0 294.9 111.5" style="enable-background:new 0 0 294.9 111.5;" xml:space="preserve">
<style type="text/css">
	.st0{fill:none;}
	.st1{fill:none;stroke:#000000;stroke-width:0.5;stroke-miterlimit:10;}
	.st2{font-family:'Helvetica';}
	.st3{font-size:47.57px;}
	.st4{letter-spacing:-1;}
	.st5{font-family:'AppleSDGothicNeo-Bold-KSCpc-EUC-H';}
	.st6{font-size:12.04px;}
</style>
<g id="_합치기_13">
	<path class="st0" d="M0.5,91.8v-68h140.7V0h62.2v31.9h-37.1v45.4h61.6v34.2H70.3V91.8H16.7l0,0H0.5z"/>
	<path d="M16.2,91.4L16.2,91.4h54.6V111h156.5V77.8h-61.6V31.4h37.1V0.5h-61.2v23.8H1v67.1L16.2,91.4 M16.7,91.9H0.5V23.8h140.7V0
		h62.2v31.9h-37.1v45.4h61.6v34.2H70.3V91.8L16.7,91.9L16.7,91.9L16.7,91.9L16.7,91.9z"/>
</g>
<rect x="227.6" y="30.7" class="st1" width="46.8" height="46.8"/>
<rect x="274.5" y="10.5" class="st1" width="20.2" height="20.2"/>
<text transform="matrix(1 0 0 1 5.5074 77.5283)" class="st2 st3 st4"> La Ville</text>
<g>
	<text transform="matrix(1 0 0 1 169.1516 100.223)" class="st5 st6">도시</text>
</g>
</svg>
