<?xml version="1.0" encoding="utf-8"?>
<!-- Generator: Adobe Illustrator 26.5.0, SVG Export Plug-In . SVG Version: 6.00 Build 0)  -->
<svg version="1.1" id="Layer_1" xmlns="http://www.w3.org/2000/svg" xmlns:xlink="http://www.w3.org/1999/xlink" x="0px" y="0px"
	 viewBox="0 0 314 94.7" style="enable-background:new 0 0 314 94.7;" xml:space="preserve">
<style type="text/css">
	.st0{fill:none;}
	.st1{font-family:'AppleSDGothicNeo-Bold-KSCpc-EUC-H';}
	.st2{font-size:12.041px;}
	.st3{font-family:'Helvetica';}
	.st4{font-size:50.1709px;}
	.st5{letter-spacing:-1;}
</style>
<g id="_합치기_12">
	<path class="st0" d="M267.4,87.3V56.2h-31.6v14.1h-19.6v5.5h-13V55.7h32.1V16.6h32.6v31.1H312v39.6H267.4L267.4,87.3z M0.5,87.3
		V16.6h129.9V0h38.1v26.1H159v4h32.1v45.2H159v12H0.5L0.5,87.3z"/>
	<path d="M311.5,86.8V48.2h-44.1V17.1h-31.6v38.6h32.1v31.1L311.5,86.8 M158.5,86.8v-12h32.1V30.6h-32.1v-5h9.5V0.5h-37.1v16.6H1
		v69.7L158.5,86.8 M215.7,75.3v-5.5h19.6V56.2h-31.6v19.1H215.7 M312,87.3h-44.6V56.2h-31.6v14.1h-19.6v5.5h-13V55.7h32.1V16.6h32.6
		v31.1H312V87.3L312,87.3z M159,87.3H0.5V16.6h129.9V0h38.1v26.1H159v4h32.1v45.2H159V87.3L159,87.3z"/>
</g>
<text transform="matrix(1 0 0 1 163.6869 68.3671)" class="st1 st2">침대</text>
<text transform="matrix(1 0 0 1 9.9135 70.8759)" class="st3 st4 st5">Le Lit</text>
</svg>
