<?xml version="1.0" encoding="utf-8"?>
<!-- Generator: Adobe Illustrator 26.5.0, SVG Export Plug-In . SVG Version: 6.00 Build 0)  -->
<svg version="1.1" id="Layer_1" xmlns="http://www.w3.org/2000/svg" xmlns:xlink="http://www.w3.org/1999/xlink" x="0px" y="0px"
	 viewBox="0 0 306 111.5" style="enable-background:new 0 0 306 111.5;" xml:space="preserve">
<style type="text/css">
	.st0{fill:none;}
	.st1{fill:none;stroke:#000000;stroke-width:0.5;stroke-miterlimit:10;}
	.st2{font-family:'Helvetica';}
	.st3{font-size:47.57px;}
	.st4{letter-spacing:-1;}
	.st5{font-family:'AppleSDGothicNeo-Bold-KSCpc-EUC-H';}
	.st6{font-size:12.04px;}
</style>
<g id="_합치기_13">
	<path class="st0" d="M0,91.8v-68h140.7V0h140.8v31.9h-37.1v45.4H306v34.2H69.8V91.8H16.2l0,0H0z"/>
	<path d="M15.7,91.4L15.7,91.4h54.6V111h235.2V77.8H244V31.4h37.1V0.5H141.2v23.8H0.5v67.1L15.7,91.4 M16.2,91.9H0V23.8h140.7V0
		h140.8v31.9h-37.1v45.4H306v34.2H69.8V91.8L16.2,91.9L16.2,91.9L16.2,91.9L16.2,91.9z"/>
</g>
<rect x="281.3" y="31.6" class="st1" width="22.7" height="22.7"/>
<text transform="matrix(1 0 0 1 9.51 77.5283)" class="st2 st3 st4">Le </text>
<text transform="matrix(1 0 0 1 68.51 77.5283)" class="st2 st3">Q</text>
<text transform="matrix(1 0 0 1 104.11 77.5283)" class="st2 st3 st4">ua</text>
<text transform="matrix(1 0 0 1 154.0008 77.5283)" class="st2 st3">rti</text>
<text transform="matrix(1 0 0 1 190.81 77.5283)" class="st2 st3">er</text>
<g>
	<text transform="matrix(1 0 0 1 265.5684 100.223)" class="st5 st6">구역</text>
</g>
</svg>
