<?xml version="1.0" encoding="utf-8"?>
<!-- Generator: Adobe Illustrator 26.5.0, SVG Export Plug-In . SVG Version: 6.00 Build 0)  -->
<svg version="1.1" id="Layer_1" xmlns="http://www.w3.org/2000/svg" xmlns:xlink="http://www.w3.org/1999/xlink" x="0px" y="0px"
	 viewBox="0 0 304 103.8" style="enable-background:new 0 0 304 103.8;" xml:space="preserve">
<style type="text/css">
	.st0{fill:none;}
	.st1{fill:none;stroke:#000000;stroke-width:0.5;stroke-miterlimit:10;}
	.st2{font-family:'Helvetica';}
	.st3{font-size:47.57px;}
	.st4{letter-spacing:-1;}
	.st5{font-family:'AppleSDGothicNeo-Bold-KSCpc-EUC-H';}
	.st6{font-size:12.04px;}
</style>
<g id="_합치기_13">
	<path class="st0" d="M0,86.2v-68h280.1V0H304v57.9h-87.6v33.5H254v12.5H69.8V86.2H16.2l0,0H0z"/>
	<path d="M15.7,85.7L15.7,85.7h54.6v17.7h183.2V91.9h-37.6V57.4h87.7V0.5h-23v18.1H0.5v67.1H15.7 M16.2,86.2H0V18.1h280.1V0H304
		v57.9h-87.6v33.5H254v12.5H69.8V86.2H16.2L16.2,86.2L16.2,86.2L16.2,86.2z"/>
</g>
<rect x="253.8" y="32" class="st1" width="26.6" height="59.5"/>
<rect x="239.3" y="2.9" class="st1" width="14.4" height="29.2"/>
<text transform="matrix(1 0 0 1 11.6115 66.2261)" class="st2 st3 st4">L’espace</text>
<g>
	<text transform="matrix(1 0 0 1 225.3203 84.7233)" class="st5 st6">공간</text>
</g>
</svg>
