<?xml version="1.0" encoding="utf-8"?>
<!-- Generator: Adobe Illustrator 26.5.0, SVG Export Plug-In . SVG Version: 6.00 Build 0)  -->
<svg version="1.1" id="Layer_1" xmlns="http://www.w3.org/2000/svg" xmlns:xlink="http://www.w3.org/1999/xlink" x="0px" y="0px"
	 viewBox="0 0 306 111.5" style="enable-background:new 0 0 306 111.5;" xml:space="preserve">
<style type="text/css">
	.st0{fill:none;}
	.st1{font-family:'Helvetica';}
	.st2{font-size:47.57px;}
	.st3{letter-spacing:-2;}
	.st4{font-family:'AppleSDGothicNeo-Bold-KSCpc-EUC-H';}
	.st5{font-size:12.04px;}
</style>
<g id="_합치기_13">
	<path class="st0" d="M0,91.8V23.8h140.7V0h138.5v31.9H266v30.9h40v48.7h-53.3V91.8H16.2v0H0z"/>
	<path d="M15.7,91.4L15.7,91.4l237.4,0V111h52.3V63.3h-40V31.4h13.3V0.5H141.2v23.8H0.5v67.1H15.7 M16.2,91.9H0V23.8h140.7V0h138.5
		v31.9H266v30.9h40v48.7h-53.3V91.8L16.2,91.9L16.2,91.9L16.2,91.9L16.2,91.9z"/>
</g>
<text transform="matrix(1 0 0 1 9.51 77.5283)" class="st1 st2 st3">L’immeuble</text>
<g>
	<text transform="matrix(1 0 0 1 269.5538 94.6488)" class="st4 st5">건물</text>
</g>
</svg>
