<?xml version="1.0" encoding="UTF-8"?><svg id="Layer_1" xmlns="http://www.w3.org/2000/svg" viewBox="0 0 107.4 57.82"><defs><style>.cls-1{letter-spacing:-.05em;}.cls-2{fill:#efeeec;}.cls-3,.cls-4{font-family:Futura-Medium, Futura;font-size:11.26px;isolation:isolate;}.cls-4{letter-spacing:-.03em;}.cls-5{letter-spacing:-.03em;}</style></defs><path id="_합치기_1" d="M10.73,55.44v-12.1H.72V7.57H15.47V1.25H62.86V30.14h-15.8v25.3H10.73Z"/><g id="_그룹_18"><path id="_사각형_8167" class="cls-2" d="M1.58,18.45v23.73H46.4V18.45H1.58m-1.58-1.58H47.98v26.89H0V16.87Z"/><path id="_사각형_8168" class="cls-2" d="M16.87,1.58V29H62.75V1.58H16.87m-1.58-1.58h49.04V30.58H15.29V0Z"/><path id="_사각형_8170" class="cls-2" d="M1.58,8.44V42.18H37.44V8.44H1.58m-1.58-1.58H39.02V43.76H0V6.86Z"/><path id="_사각형_8169" class="cls-2" d="M12.13,18.45V54.84H46.4V18.45H12.13m-1.58-1.58H47.98V56.42H10.55V16.87Z"/></g><text class="cls-3" transform="translate(51.63 42.18)"><tspan class="cls-5" x="0" y="0">GEO</tspan><tspan class="cls-1" x="24.93" y="0">R</tspan><tspan class="cls-5" x="31.19" y="0">GES </tspan></text><text class="cls-4" transform="translate(51.63 54.57)"><tspan x="0" y="0">PEREC</tspan></text></svg>