<?xml version="1.0" encoding="UTF-8"?><svg id="Layer_1" xmlns="http://www.w3.org/2000/svg" viewBox="0 0 64.33 56.42"><defs><style>.cls-1{fill:#efeeec;}</style></defs><path id="_합치기_1" d="M10.73,55.44v-12.1H.72V7.57H15.47V1.25H62.86V30.14h-15.8v25.3H10.73Z"/><g id="_그룹_18"><path id="_사각형_8167" class="cls-1" d="M1.58,18.45v23.73H46.4V18.45H1.58m-1.58-1.58H47.98v26.89H0V16.87Z"/><path id="_사각형_8168" class="cls-1" d="M16.87,1.58V29H62.75V1.58H16.87m-1.58-1.58h49.04V30.58H15.29s0-30.58,0-30.58Z"/><path id="_사각형_8170" class="cls-1" d="M1.58,8.44V42.18H37.44V8.44H1.58m-1.58-1.58H39.02V43.76H0V6.86Z"/><path id="_사각형_8169" class="cls-1" d="M12.13,18.45V54.84H46.4V18.45H12.13m-1.58-1.58H47.98V56.42H10.55V16.87Z"/></g></svg>