<?xml version="1.0" encoding="utf-8"?>
<!-- Generator: Adobe Illustrator 26.5.0, SVG Export Plug-In . SVG Version: 6.00 Build 0)  -->
<svg version="1.1" id="Layer_1" xmlns="http://www.w3.org/2000/svg" xmlns:xlink="http://www.w3.org/1999/xlink" x="0px" y="0px"
	 viewBox="0 0 537.1 281.6" style="enable-background:new 0 0 537.1 281.6;" xml:space="preserve">
<style type="text/css">
	.st0{fill:none;}
	.st1{enable-background:new    ;}
	.st2{fill:none;stroke:#000000;stroke-width:0.5332;stroke-miterlimit:10;}
</style>
<g id="_합치기_9">
	<path class="st0" d="M291.7,281.6H0V54.7h217.7V1.1h119.6v33.3h56.4v99.5h-56.4v74.5h110.8v73.3H291.7L291.7,281.6z"/>
	<path d="M447.4,280.8V209H336.6V133H393V35.1h-56.4V1.9H218.5v53.6H0.8v225.3L447.4,280.8 M448.2,281.6H0V54.7h217.7V1.1h119.6
		v33.3h56.4v99.5h-56.4v74.5h110.8L448.2,281.6L448.2,281.6z"/>
</g>
<g>
	<path d="M335,237.3v-1.7h5.9v-2.9h2.3v2.9h7.3v1.7H335z M342.6,245.2c-3.9,0-6-1.3-6-3.3c0-2,2.1-3.3,6-3.3c3.7,0,6,1.3,6,3.3
		C348.6,243.8,346.3,245.2,342.6,245.2z M347.9,234.8c-0.7-0.1-1.5-0.3-2.1-0.3c0.3-1.2,0.5-2.1,0.5-4h-9.4v-1.7h11.7
		C348.5,231.9,348.2,233.3,347.9,234.8L347.9,234.8z M342.6,240.5c-2.3,0-3.7,0.5-3.7,1.5c0,0.9,1.3,1.5,3.7,1.5
		c2.3,0,3.7-0.5,3.7-1.5C346.3,241,344.7,240.5,342.6,240.5z"/>
	<path d="M351.9,238.5l-1.1-1.7c2.8-0.5,5.9-2.5,6.4-5.5h-5.6v-1.9h8C359.6,234.4,356,237.6,351.9,238.5L351.9,238.5z M353.4,244.8
		v-5.6h2.3v3.7h9.2v1.7L353.4,244.8L353.4,244.8z M364.4,234.8v5.7h-2.3v-12.4h2.3v4.9h2.4v1.9h-2.4V234.8z"/>
	<path d="M372.8,241.3c-1.9,0.1-4,0.1-5.3,0.1l-0.3-1.9c2,0,3.6,0,5.6-0.1c2.1-0.1,4.3-0.3,5.7-0.4l0.1,1.9
		C376.9,241,374.7,241.2,372.8,241.3L372.8,241.3z M372.5,229.2c2.9,0,4.8,1.7,4.8,4.1s-1.9,4.1-4.8,4.1s-4.8-1.7-4.8-4.1
		S369.6,229.2,372.5,229.2z M372.5,235.6c1.6,0,2.5-0.9,2.5-2.3s-0.9-2.1-2.5-2.1s-2.5,0.9-2.5,2.1S370.9,235.6,372.5,235.6z
		 M381.6,245.2h-2.3V228h2.3V245.2z"/>
	<path d="M387.6,238.1v-1.9h6.5v-2.1h2.3v2.1h6.7v1.9H387.6z M401.4,235.2c-2.4-0.3-5.1-1.6-6-3.2c-0.8,1.7-3.3,3.1-6.1,3.3
		l-0.9-1.7c2.5-0.1,4.9-1.3,5.6-2.9h-4.8v-1.7h12.4v1.7h-4.8c0.8,1.7,3.3,2.8,5.6,2.9L401.4,235.2L401.4,235.2z M395.3,245.2
		c-3.9,0-6-1.2-6-3.2c0-2,2.1-3.2,6-3.2c3.7,0,6,1.2,6,3.2C401.3,244,399.1,245.2,395.3,245.2z M395.3,240.6c-2.3,0-3.6,0.5-3.6,1.5
		s1.5,1.5,3.6,1.5c2.1,0,3.7-0.5,3.7-1.5S397.5,240.6,395.3,240.6z"/>
	<path d="M407.3,245.2v-5.6h-3.7v-1.7H419v1.7h-3.7v5.6H413v-5.6h-3.6v5.6C409.5,245.2,407.3,245.2,407.3,245.2z M405.7,236.5v-4.8
		h9.3v-1.3h-9.3v-1.7h11.6v4.8h-9.3v1.3h9.7v1.7H405.7L405.7,236.5z"/>
	<path d="M419.6,236.6v-1.9H435v1.9H419.6z M421.6,245.2v-4.5h9.2v-1.1h-9.3v-1.7h11.6v4.4h-9.2v1.1h9.8v1.9H421.6z M421.7,233.8
		v-5.5h11.4v1.7H424v1.9h9.3v1.7L421.7,233.8L421.7,233.8z"/>
</g>
<g class="st1">
	<path d="M335.4,265.4V264h4.9v-2.9h1.7v2.9h5.1v1.3H335.4z M345.9,261.5c-1.7-0.4-3.9-1.6-4.7-3.3c-0.7,1.7-2.9,2.9-4.7,3.3
		l-0.8-1.3c2-0.3,4.4-1.6,4.5-3.7h-4v-1.3h9.7v1.3h-4c0.3,2.1,2.7,3.6,4.7,3.9L345.9,261.5z"/>
	<path d="M347.5,265.4V264h11.7v1.3H347.5z M349,262v-4.3h7v-1.5h-7V255h8.8v4.3h-7v1.6h7.4v1.3H349V262z"/>
	<path d="M364.7,267v-4.5h-4.9v-1.3h11.7v1.3h-5.1v4.5H364.7z M360.2,258.9c2-0.3,4.1-1.3,4.4-2.9h-3.9v-1.3h9.6v1.3h-3.9
		c0.3,1.6,2.5,2.7,4.4,2.8c-0.3,0.4-0.5,0.9-0.7,1.3c-1.7-0.1-3.9-1.3-4.7-2.7c-0.7,1.3-2.8,2.4-4.5,2.7L360.2,258.9z"/>
</g>
<g class="st1">
	<path d="M375.5,264c-0.1-0.4-0.1-1.1-0.3-1.5h1.2c-0.1-1.6-0.3-3.2-0.3-4.8c0.5,0,1.1-0.1,1.6-0.3c0,1.6,0.1,3.3,0.1,4.9h0.9
		c0.1-1.6,0.1-3.2,0.3-4.9l1.6,0.1c-0.1,1.6-0.3,3.1-0.4,4.7c0.4,0,0.8-0.1,1.1-0.1l0.1,1.3C379.6,263.9,377.7,264,375.5,264z
		 M375.5,256.9v-1.3h6v1.3H375.5z M382.4,266.3v-6h-1.3V259h1.3v-4.8h1.6v12.1H382.4z M384.8,267v-12.9h1.6V267H384.8z"/>
	<path d="M393.8,261.2c-1.2,0.3-3.3,0.4-4.8,0.4h-0.8v-4.1h3.1v-1.2h-3.1V255h4.8v3.9H390v1.5c1.1,0,2.9-0.1,3.9-0.4V261.2z
		 M398.6,262.6v4.4h-1.7v-3.1h-7.4v-1.3H398.6z M393.3,258.9v-1.3h1.2v-3.2h1.6v7.7h-1.6V259h-1.2V258.9z M397,261.9v-8h1.6v8H397z"
		/>
</g>
<g class="st1">
	<path d="M28.7,85.8h33.9v5.7H34.8v14.2h25.7v5.5H34.8V127H63v5.6H28.7V85.8z"/>
	<path d="M72,121.7c0.1,1.9,0.7,3.3,1.5,4.4c1.5,1.9,4,2.8,7.7,2.8c2.1,0,4.1-0.4,5.7-1.3c1.6-0.9,2.5-2.4,2.5-4.3
		c0-1.5-0.7-2.5-2-3.3c-0.8-0.5-2.5-1.1-4.9-1.6l-4.7-1.2c-2.9-0.7-5.2-1.5-6.5-2.4c-2.5-1.6-3.7-3.7-3.7-6.4c0-3.2,1.2-5.9,3.6-7.8
		s5.5-2.9,9.4-2.9c5.2,0,8.9,1.5,11.3,4.5c1.5,1.9,2.1,4,2.1,6.1h-5.5c-0.1-1.3-0.5-2.4-1.5-3.5c-1.3-1.5-3.7-2.3-7-2.3
		c-2.3,0-3.9,0.4-5.1,1.2c-1.2,0.8-1.7,1.9-1.7,3.3s0.8,2.7,2.3,3.6c0.8,0.5,2.1,0.9,3.9,1.3l3.9,0.9c4.1,0.9,7,2,8.4,2.9
		c2.3,1.5,3.3,3.7,3.3,6.9c0,3.1-1.2,5.6-3.5,7.8c-2.3,2.3-5.9,3.3-10.6,3.3c-5.2,0-8.8-1.2-10.9-3.5c-2.1-2.3-3.3-5.2-3.5-8.5H72
		V121.7z"/>
	<path d="M98.4,98.6h5.6v4.5c1.2-1.6,2.4-2.8,3.7-3.6c2-1.3,4.3-1.9,6.8-1.9c3.9,0,7.2,1.5,9.8,4.4c2.7,2.9,4,7.2,4,12.6
		c0,7.4-2,12.8-5.9,15.8c-2.5,2-5.3,3.1-8.6,3.1c-2.5,0-4.8-0.5-6.5-1.7c-1.1-0.7-2.1-1.7-3.5-3.3v17.6h-5.5V98.6z M120,125.3
		c1.7-2.3,2.7-5.6,2.7-10c0-2.7-0.4-5.1-1.2-7c-1.5-3.7-4.3-5.6-8.1-5.6c-4,0-6.7,2-8.1,6c-0.8,2.1-1.2,4.8-1.2,8.1
		c0,2.7,0.4,4.9,1.2,6.7c1.5,3.5,4.3,5.3,8.1,5.3C116,128.6,118.1,127.4,120,125.3z"/>
	<path d="M153.9,99.4c2.3,1.2,4,2.7,5.2,4.4c1.2,1.7,1.9,3.7,2.3,6c0.4,1.6,0.5,4.1,0.5,7.4h-24.7c0.1,3.5,0.9,6.3,2.4,8.4
		c1.5,2.1,3.9,3.2,7,3.2c2.9,0,5.3-0.9,7-2.9c0.9-1.2,1.7-2.5,2.1-4h5.6c-0.1,1.2-0.7,2.7-1.5,4.1c-0.8,1.6-1.7,2.8-2.8,3.7
		c-1.7,1.7-3.9,2.8-6.4,3.5c-1.3,0.4-2.9,0.5-4.7,0.5c-4.3,0-7.7-1.6-10.6-4.7s-4.4-7.4-4.4-12.9c0-5.5,1.5-9.8,4.4-13.3
		c2.9-3.5,6.8-5.1,11.6-5.1C149.4,97.7,151.6,98.2,153.9,99.4z M155.9,112.7c-0.3-2.5-0.8-4.5-1.6-6c-1.6-2.8-4.1-4.1-7.8-4.1
		c-2.7,0-4.8,0.9-6.5,2.8c-1.7,1.9-2.7,4.3-2.8,7.2h18.8V112.7z M150.7,93.9h-4.4l-8.5-9.2h7L150.7,93.9z"/>
	<path d="M189.4,100.2c2.4,1.9,3.9,5.1,4.4,9.6h-5.6c-0.4-2.1-1.1-3.9-2.3-5.2c-1.2-1.3-3.2-2.1-5.9-2.1c-3.6,0-6.3,1.7-7.8,5.3
		c-1.1,2.3-1.5,5.2-1.5,8.5c0,3.5,0.7,6.3,2.1,8.6c1.5,2.4,3.7,3.5,6.8,3.5c2.4,0,4.3-0.7,5.6-2.1s2.4-3.5,2.9-6h5.6
		c-0.7,4.5-2.3,7.8-4.8,9.8c-2.5,2.1-5.9,3.2-9.7,3.2c-4.4,0-8-1.6-10.6-4.9c-2.7-3.2-4-7.3-4-12.2c0-6,1.5-10.6,4.4-14
		s6.7-5.1,11-5.1C183.8,97.4,186.9,98.3,189.4,100.2z"/>
	<path d="M218.3,99.4c2.3,1.2,4,2.7,5.2,4.4c1.2,1.7,1.9,3.7,2.3,6c0.4,1.6,0.5,4.1,0.5,7.4h-24.7c0.1,3.5,0.9,6.3,2.4,8.4
		c1.5,2.1,3.9,3.2,7,3.2c2.9,0,5.3-0.9,7-2.9c0.9-1.2,1.7-2.5,2.1-4h5.6c-0.1,1.2-0.7,2.7-1.5,4.1c-0.8,1.6-1.7,2.8-2.8,3.7
		c-1.7,1.7-3.9,2.8-6.4,3.5c-1.3,0.4-2.9,0.5-4.7,0.5c-4.3,0-7.7-1.6-10.6-4.7s-4.4-7.4-4.4-12.9c0-5.5,1.5-9.8,4.4-13.3
		s6.8-5.1,11.6-5.1C213.6,97.7,216,98.2,218.3,99.4z M220.3,112.7c-0.3-2.5-0.8-4.5-1.6-6c-1.6-2.8-4.1-4.1-7.8-4.1
		c-2.7,0-4.8,0.9-6.5,2.8c-1.7,1.9-2.7,4.3-2.8,7.2h18.8V112.7z"/>
	<path d="M234.6,121.7c0.1,1.9,0.7,3.3,1.5,4.4c1.5,1.9,4,2.8,7.7,2.8c2.1,0,4.1-0.4,5.7-1.3c1.6-0.9,2.5-2.4,2.5-4.3
		c0-1.5-0.7-2.5-2-3.3c-0.8-0.5-2.5-1.1-4.9-1.6l-4.7-1.2c-2.9-0.7-5.2-1.5-6.5-2.4c-2.5-1.6-3.7-3.7-3.7-6.4c0-3.2,1.2-5.9,3.6-7.8
		c2.4-2,5.5-2.9,9.4-2.9c5.2,0,8.9,1.5,11.3,4.5c1.5,1.9,2.1,4,2.1,6.1h-5.5c-0.1-1.3-0.5-2.4-1.5-3.5c-1.3-1.5-3.7-2.3-7-2.3
		c-2.3,0-3.9,0.4-5.1,1.2c-1.2,0.8-1.7,1.9-1.7,3.3s0.8,2.7,2.3,3.6c0.8,0.5,2.1,0.9,3.9,1.3l3.9,0.9c4.1,0.9,7,2,8.4,2.9
		c2.3,1.5,3.3,3.7,3.3,6.9c0,3.1-1.2,5.6-3.5,7.8c-2.3,2.3-5.9,3.3-10.6,3.3c-5.2,0-8.8-1.2-10.9-3.5c-2.1-2.3-3.3-5.2-3.5-8.5h5.5
		V121.7z"/>
	<path d="M46,168.7c1.1,0.7,2.1,1.7,3.5,3.3v-17.2h5.5v46.8h-5.2v-4.8c-1.3,2.1-2.9,3.6-4.7,4.5c-1.9,0.9-3.9,1.5-6.3,1.5
		c-3.7,0-7-1.6-9.8-4.8c-2.8-3.2-4.1-7.4-4.1-12.8c0-4.9,1.2-9.3,3.7-12.9s6.1-5.5,10.8-5.5C42.2,166.9,44.3,167.6,46,168.7z
		 M33.3,194.2c1.6,2.4,4,3.7,7.4,3.7c2.7,0,4.8-1.2,6.5-3.5s2.5-5.6,2.5-9.8c0-4.3-0.9-7.4-2.7-9.6c-1.7-2.1-3.9-3.1-6.5-3.1
		c-2.9,0-5.2,1.1-6.9,3.3c-1.7,2.3-2.7,5.5-2.7,9.7C31,188.6,31.8,191.7,33.3,194.2z"/>
	<path d="M62.5,168.5c1.2-0.1,2.1-0.8,2.7-2c0.7-1.1,0.9-2.4,0.9-3.9c0-0.1,0-0.3,0-0.4s0-0.3-0.1-0.4h-3.5V155h6.8v6.4
		c0,2.7-0.5,5.1-1.7,6.9c-1.1,1.9-2.8,2.9-5.1,3.2V168.5z"/>
	<path d="M94.6,168.5c2.3,1.2,4,2.7,5.2,4.4s1.9,3.7,2.3,6c0.4,1.6,0.5,4.1,0.5,7.4H77.8c0.1,3.5,0.9,6.3,2.4,8.4s3.9,3.2,7,3.2
		c2.9,0,5.3-0.9,7-2.9c0.9-1.2,1.7-2.5,2.1-4h5.6c-0.1,1.2-0.7,2.7-1.5,4.1c-0.8,1.6-1.7,2.8-2.8,3.7c-1.7,1.7-3.9,2.8-6.4,3.5
		c-1.3,0.4-2.9,0.5-4.7,0.5c-4.3,0-7.7-1.6-10.6-4.7c-2.9-3.1-4.4-7.4-4.4-12.9c0-5.5,1.5-9.8,4.4-13.3c2.9-3.5,6.8-5.1,11.6-5.1
		C90,166.8,92.3,167.3,94.6,168.5z M96.7,181.8c-0.3-2.5-0.8-4.5-1.6-6c-1.6-2.8-4.1-4.1-7.8-4.1c-2.7,0-4.8,0.9-6.5,2.8
		c-1.7,1.9-2.7,4.3-2.8,7.2h18.8V181.8z"/>
	<path d="M110.9,191c0.1,1.9,0.7,3.3,1.5,4.4c1.5,1.9,4,2.8,7.7,2.8c2.1,0,4.1-0.4,5.7-1.3c1.6-0.9,2.5-2.4,2.5-4.3
		c0-1.5-0.7-2.5-2-3.3c-0.8-0.5-2.5-1.1-4.9-1.6l-4.7-1.2c-2.9-0.7-5.2-1.5-6.5-2.4c-2.5-1.6-3.7-3.7-3.7-6.4c0-3.2,1.2-5.9,3.6-7.8
		s5.5-2.9,9.4-2.9c5.2,0,8.9,1.5,11.3,4.5c1.5,1.9,2.1,4,2.1,6.1h-5.5c-0.1-1.3-0.5-2.4-1.5-3.5c-1.3-1.5-3.7-2.3-7-2.3
		c-2.3,0-3.9,0.4-5.1,1.2c-1.2,0.8-1.7,1.9-1.7,3.3c0,1.5,0.8,2.7,2.3,3.6c0.8,0.5,2.1,0.9,3.9,1.3l3.9,0.9c4.1,0.9,7,2,8.4,2.9
		c2.3,1.5,3.3,3.7,3.3,6.9c0,3.1-1.2,5.6-3.5,7.8s-5.9,3.3-10.6,3.3c-5.2,0-8.8-1.2-10.9-3.5c-2.1-2.3-3.3-5.2-3.5-8.5h5.5V191z"/>
	<path d="M137.4,167.7h5.6v4.5c1.2-1.6,2.4-2.8,3.7-3.6c2-1.3,4.3-1.9,6.8-1.9c3.9,0,7.2,1.5,9.8,4.4c2.7,2.9,4,7.2,4,12.6
		c0,7.4-2,12.8-5.9,15.8c-2.5,2-5.3,3.1-8.6,3.1c-2.5,0-4.8-0.5-6.5-1.7c-1.1-0.7-2.1-1.7-3.5-3.3v17.6h-5.7v-47.5H137.4z
		 M158.9,194.5c1.7-2.3,2.7-5.6,2.7-10c0-2.7-0.4-5.1-1.2-7c-1.5-3.7-4.3-5.6-8.1-5.6c-4,0-6.7,2-8.1,6c-0.8,2.1-1.2,4.8-1.2,8.1
		c0,2.7,0.4,4.9,1.2,6.7c1.5,3.5,4.3,5.3,8.1,5.3C154.9,197.8,157.2,196.7,158.9,194.5z"/>
	<path d="M190.2,181c1.3-0.1,2.1-0.7,2.7-1.6c0.3-0.5,0.4-1.2,0.4-2.3c0-2-0.7-3.3-2.1-4.3c-1.3-0.9-3.3-1.3-6-1.3
		c-2.9,0-5.1,0.8-6.4,2.4c-0.7,0.9-1.2,2.3-1.3,4h-5.3c0.1-4.3,1.5-7.2,4.1-8.8c2.7-1.6,5.6-2.5,9-2.5c4,0,7.2,0.8,9.7,2.3
		c2.5,1.5,3.7,3.9,3.7,7.2v19.6c0,0.5,0.1,1.1,0.4,1.5c0.3,0.4,0.8,0.5,1.6,0.5c0.3,0,0.5,0,0.8,0c0.3,0,0.7-0.1,1.1-0.1v4.3
		c-0.9,0.3-1.6,0.4-2,0.5c-0.5,0-1.1,0.1-1.9,0.1c-2,0-3.5-0.7-4.3-2.1c-0.5-0.8-0.8-1.7-0.9-3.2c-1.2,1.5-2.8,2.8-5.1,4
		c-2.1,1.1-4.5,1.7-7.2,1.7c-3.2,0-5.7-0.9-7.7-2.9c-2-1.9-3.1-4.3-3.1-7.2c0-3.2,0.9-5.6,2.9-7.3c2-1.7,4.5-2.8,7.7-3.2L190.2,181z
		 M178.1,196.5c1.2,0.9,2.7,1.5,4.3,1.5c2,0,4-0.4,5.9-1.3c3.2-1.6,4.8-4.1,4.8-7.6v-4.7c-0.7,0.4-1.6,0.8-2.7,1.1
		c-1.1,0.3-2.1,0.5-3.2,0.7l-3.5,0.4c-2.1,0.3-3.6,0.7-4.7,1.3c-1.7,0.9-2.7,2.5-2.7,4.8C176.2,194.2,176.9,195.5,178.1,196.5z"/>
	<path d="M228.4,169.5c2.4,1.9,3.9,5.1,4.4,9.6h-5.6c-0.4-2.1-1.1-3.9-2.3-5.2c-1.2-1.3-3.2-2.1-5.9-2.1c-3.6,0-6.3,1.7-7.8,5.3
		c-1.1,2.3-1.5,5.2-1.5,8.5c0,3.5,0.7,6.3,2.1,8.6c1.5,2.4,3.7,3.5,6.8,3.5c2.4,0,4.3-0.7,5.6-2.1c1.3-1.5,2.4-3.5,2.9-6h5.6
		c-0.7,4.5-2.3,7.8-4.8,9.8c-2.5,2.1-5.9,3.2-9.7,3.2c-4.4,0-8-1.6-10.6-4.9c-2.7-3.2-4-7.3-4-12.2c0-6,1.5-10.6,4.4-14
		c2.9-3.3,6.7-5.1,11-5.1C222.8,166.7,226,167.6,228.4,169.5z"/>
	<path d="M257.2,168.5c2.3,1.2,4,2.7,5.2,4.4c1.2,1.7,1.9,3.7,2.3,6c0.4,1.6,0.5,4.1,0.5,7.4h-24.7c0.1,3.5,0.9,6.3,2.4,8.4
		s3.9,3.2,7,3.2c2.9,0,5.3-0.9,7-2.9c0.9-1.2,1.7-2.5,2.1-4h5.6c-0.1,1.2-0.7,2.7-1.5,4.1c-0.8,1.6-1.7,2.8-2.8,3.7
		c-1.7,1.7-3.9,2.8-6.4,3.5c-1.3,0.4-2.9,0.5-4.7,0.5c-4.3,0-7.7-1.6-10.6-4.7s-4.4-7.4-4.4-12.9c0-5.5,1.5-9.8,4.4-13.3
		c2.9-3.5,6.8-5.1,11.6-5.1C252.7,166.8,255,167.3,257.2,168.5z M259.2,181.8c-0.3-2.5-0.8-4.5-1.6-6c-1.6-2.8-4.1-4.1-7.8-4.1
		c-2.7,0-4.8,0.9-6.5,2.8c-1.7,1.9-2.7,4.3-2.8,7.2h18.8V181.8z"/>
	<path d="M273.6,191c0.1,1.9,0.7,3.3,1.5,4.4c1.5,1.9,4,2.8,7.7,2.8c2.1,0,4.1-0.4,5.7-1.3c1.6-0.9,2.5-2.4,2.5-4.3
		c0-1.5-0.7-2.5-2-3.3c-0.8-0.5-2.5-1.1-4.9-1.6l-4.7-1.2c-2.9-0.7-5.2-1.5-6.5-2.4c-2.5-1.6-3.7-3.7-3.7-6.4c0-3.2,1.2-5.9,3.6-7.8
		s5.5-2.9,9.4-2.9c5.2,0,8.9,1.5,11.3,4.5c1.5,1.9,2.1,4,2.1,6.1h-5.7c-0.1-1.3-0.5-2.4-1.5-3.5c-1.3-1.5-3.7-2.3-7-2.3
		c-2.3,0-3.9,0.4-5.1,1.2c-1.2,0.8-1.7,1.9-1.7,3.3c0,1.5,0.8,2.7,2.3,3.6c0.8,0.5,2.1,0.9,3.9,1.3l3.9,0.9c4.1,0.9,7,2,8.4,2.9
		c2.3,1.5,3.3,3.7,3.3,6.9c0,3.1-1.2,5.6-3.5,7.8s-5.9,3.3-10.6,3.3c-5.2,0-8.8-1.2-10.9-3.5c-2.1-2.3-3.3-5.2-3.5-8.5h5.7V191z"/>
</g>
<g class="st1">
	<path d="M39.6,244.9c1.5,0.8,2.4,2.1,2.7,4.1h-2c-0.3-1.1-0.8-1.9-1.5-2.4c-0.7-0.5-1.7-0.8-2.9-0.8c-1.3,0-2.5,0.5-3.5,1.6
		c-0.9,1.1-1.5,2.7-1.5,4.7c0,1.9,0.4,3.3,1.2,4.4c0.8,1.2,2,1.7,3.7,1.7c1.3,0,2.4-0.4,3.3-1.2c0.9-0.8,1.3-2.1,1.3-3.9h-4.7v-1.7
		h6.7v8.1h-1.3l-0.5-2c-0.7,0.8-1.3,1.3-1.9,1.6c-0.9,0.5-2,0.8-3.3,0.8c-1.7,0-3.3-0.5-4.5-1.7c-1.3-1.5-2.1-3.5-2.1-6
		c0-2.5,0.7-4.5,2-6.1c1.3-1.5,2.9-2.1,5.1-2.1C37.4,244.1,38.6,244.4,39.6,244.9z"/>
	<path d="M51.7,248.9c0.7,0.4,1.3,0.8,1.7,1.5c0.4,0.5,0.7,1.2,0.8,2c0.1,0.5,0.1,1.3,0.1,2.4h-8c0,1.1,0.3,2,0.8,2.7
		c0.5,0.7,1.2,1.1,2.3,1.1c0.9,0,1.7-0.3,2.3-0.9c0.3-0.4,0.5-0.8,0.7-1.3h1.9c0,0.4-0.3,0.8-0.5,1.3c-0.3,0.5-0.5,0.9-0.9,1.2
		c-0.5,0.5-1.2,0.9-2.1,1.1c-0.4,0.1-0.9,0.1-1.5,0.1c-1.3,0-2.5-0.5-3.5-1.5c-0.9-1.1-1.5-2.4-1.5-4.3c0-1.7,0.5-3.2,1.5-4.3
		c0.9-1.1,2.3-1.6,3.7-1.6C50.3,248.3,51.1,248.5,51.7,248.9z M52.4,253.3c-0.1-0.8-0.3-1.5-0.5-2c-0.5-0.9-1.3-1.3-2.5-1.3
		c-0.8,0-1.6,0.3-2.1,0.9c-0.5,0.7-0.9,1.5-0.9,2.4H52.4z"/>
	<path d="M64,249.7c0.9,0.9,1.5,2.4,1.5,4.1c0,1.7-0.4,3.2-1.3,4.4c-0.8,1.2-2.3,1.7-4,1.7c-1.5,0-2.7-0.5-3.6-1.6
		c-0.9-1.1-1.3-2.4-1.3-4.1c0-1.9,0.5-3.3,1.5-4.4c0.9-1.1,2.1-1.6,3.7-1.6C61.8,248.2,63,248.7,64,249.7z M62.9,257
		c0.4-0.9,0.7-2,0.7-3.1c0-1.1-0.1-1.9-0.5-2.5c-0.5-1.1-1.5-1.5-2.7-1.5c-1.1,0-2,0.4-2.4,1.3c-0.5,0.9-0.8,1.9-0.8,3.2
		c0,1.2,0.3,2.1,0.8,2.9c0.5,0.8,1.3,1.2,2.4,1.2C61.6,258.5,62.4,257.9,62.9,257z"/>
	<path d="M67,248.6h1.7v1.9c0.1-0.4,0.5-0.8,1.1-1.3c0.5-0.5,1.2-0.8,2-0.8H72c0.1,0,0.3,0,0.4,0v2c-0.1,0-0.3,0-0.3,0
		c-0.1,0-0.1,0-0.3,0c-0.9,0-1.6,0.3-2.1,0.9c-0.5,0.7-0.8,1.3-0.8,2.1v6.4H67C67,259.8,67,248.6,67,248.6z"/>
	<path d="M79.5,249c0.4,0.3,0.7,0.5,1.1,1.1v-1.3h1.7v10.1c0,1.5-0.3,2.5-0.7,3.3c-0.8,1.5-2.3,2.3-4.4,2.3c-1.2,0-2.1-0.3-2.9-0.8
		c-0.8-0.5-1.2-1.3-1.3-2.5h1.9c0.1,0.5,0.3,0.9,0.5,1.2c0.4,0.4,1.1,0.7,2,0.7c1.5,0,2.4-0.5,2.8-1.5c0.3-0.5,0.4-1.6,0.4-3.2
		c-0.4,0.5-0.8,0.9-1.3,1.2c-0.5,0.3-1.2,0.4-2.1,0.4c-1.2,0-2.3-0.4-3.2-1.3s-1.3-2.3-1.3-4.3c0-1.9,0.4-3.3,1.3-4.4
		c0.9-1.1,2-1.6,3.3-1.6C78.1,248.3,78.9,248.6,79.5,249z M79.7,251c-0.5-0.7-1.3-0.9-2.1-0.9c-1.3,0-2.1,0.7-2.7,1.9
		c-0.3,0.7-0.4,1.5-0.4,2.5c0,1.2,0.3,2.1,0.8,2.8c0.5,0.7,1.2,0.9,2,0.9c1.3,0,2.3-0.7,2.8-1.9c0.3-0.7,0.4-1.5,0.4-2.4
		C80.6,252.7,80.3,251.7,79.7,251z"/>
	<path d="M91.2,248.9c0.7,0.4,1.3,0.8,1.7,1.5c0.4,0.5,0.7,1.2,0.8,2c0.1,0.5,0.1,1.3,0.1,2.4h-8c0,1.1,0.3,2,0.8,2.7
		c0.5,0.7,1.2,1.1,2.3,1.1c0.9,0,1.7-0.3,2.3-0.9c0.3-0.4,0.5-0.8,0.7-1.3h1.9c0,0.4-0.3,0.8-0.5,1.3c-0.3,0.5-0.5,0.9-0.9,1.2
		c-0.5,0.5-1.2,0.9-2.1,1.1c-0.4,0.1-0.9,0.1-1.5,0.1c-1.3,0-2.5-0.5-3.5-1.5c-0.9-1.1-1.5-2.4-1.5-4.3c0-1.7,0.5-3.2,1.5-4.3
		c0.9-1.1,2.3-1.6,3.7-1.6C89.8,248.3,90.4,248.5,91.2,248.9z M91.9,253.3c-0.1-0.8-0.3-1.5-0.5-2c-0.5-0.9-1.3-1.3-2.5-1.3
		c-0.8,0-1.6,0.3-2.1,0.9c-0.5,0.7-0.9,1.5-0.9,2.4H91.9z"/>
	<path d="M96.6,256.2c0,0.7,0.3,1.1,0.5,1.5c0.5,0.5,1.3,0.9,2.5,0.9c0.7,0,1.3-0.1,1.9-0.4c0.5-0.3,0.8-0.8,0.8-1.3
		c0-0.5-0.3-0.8-0.7-1.1c-0.3-0.1-0.8-0.3-1.6-0.5l-1.5-0.4c-0.9-0.3-1.7-0.5-2.1-0.8c-0.8-0.5-1.2-1.2-1.2-2.1
		c0-1.1,0.4-1.9,1.2-2.5c0.8-0.7,1.7-0.9,3.1-0.9c1.7,0,2.9,0.5,3.6,1.5c0.5,0.7,0.7,1.3,0.7,2H102c0-0.4-0.1-0.8-0.4-1.2
		c-0.4-0.5-1.2-0.7-2.3-0.7c-0.7,0-1.2,0.1-1.6,0.4c-0.4,0.3-0.5,0.7-0.5,1.1c0,0.5,0.3,0.8,0.7,1.2c0.3,0.1,0.7,0.3,1.2,0.4
		l1.2,0.3c1.3,0.3,2.3,0.7,2.8,0.9c0.7,0.5,1.1,1.2,1.1,2.3c0,0.9-0.4,1.9-1.2,2.5s-1.9,1.1-3.5,1.1c-1.7,0-2.8-0.4-3.6-1.1
		c-0.7-0.8-1.1-1.7-1.1-2.8h1.7V256.2z"/>
	<path d="M110.9,244.5h6.8c1.3,0,2.4,0.4,3.2,1.2c0.8,0.8,1.2,1.9,1.2,3.2c0,1.2-0.4,2.3-1.1,3.1c-0.7,0.8-1.9,1.3-3.3,1.3h-4.8v6.4
		h-2V244.5z M118.8,246.5c-0.4-0.3-1.1-0.3-1.9-0.3h-4v5.2h4c0.9,0,1.6-0.1,2.3-0.5c0.5-0.4,0.8-1.1,0.8-2.1
		C120.1,247.7,119.7,246.9,118.8,246.5z"/>
	<path d="M130.6,248.9c0.7,0.4,1.3,0.8,1.7,1.5c0.4,0.5,0.7,1.2,0.8,2c0.1,0.5,0.1,1.3,0.1,2.4h-8c0,1.1,0.3,2,0.8,2.7
		s1.2,1.1,2.3,1.1c0.9,0,1.7-0.3,2.3-0.9c0.3-0.4,0.5-0.8,0.7-1.3h1.9c0,0.4-0.3,0.8-0.5,1.3c-0.3,0.5-0.5,0.9-0.9,1.2
		c-0.5,0.5-1.2,0.9-2.1,1.1c-0.4,0.1-0.9,0.1-1.5,0.1c-1.3,0-2.5-0.5-3.5-1.5c-0.9-1.1-1.5-2.4-1.5-4.3c0-1.7,0.5-3.2,1.5-4.3
		c0.9-1.1,2.3-1.6,3.7-1.6C129.1,248.3,129.9,248.5,130.6,248.9z M131.3,253.3c-0.1-0.8-0.3-1.5-0.5-2c-0.5-0.9-1.3-1.3-2.5-1.3
		c-0.8,0-1.6,0.3-2.1,0.9s-0.9,1.5-0.9,2.4H131.3z"/>
	<path d="M134.9,248.6h1.7v1.9c0.1-0.4,0.5-0.8,1.1-1.3c0.5-0.5,1.2-0.8,2-0.8h0.1c0.1,0,0.3,0,0.4,0v2c-0.1,0-0.3,0-0.3,0
		c-0.1,0-0.1,0-0.3,0c-0.9,0-1.6,0.3-2.1,0.9s-0.8,1.3-0.8,2.1v6.4h-1.9L134.9,248.6L134.9,248.6z"/>
	<path d="M147.9,248.9c0.7,0.4,1.3,0.8,1.7,1.5c0.4,0.5,0.7,1.2,0.8,2c0.1,0.5,0.1,1.3,0.1,2.4h-8c0,1.1,0.3,2,0.8,2.7
		c0.5,0.7,1.2,1.1,2.3,1.1c0.9,0,1.7-0.3,2.3-0.9c0.3-0.4,0.5-0.8,0.7-1.3h1.9c0,0.4-0.3,0.8-0.5,1.3c-0.3,0.5-0.5,0.9-0.9,1.2
		c-0.5,0.5-1.2,0.9-2.1,1.1c-0.4,0.1-0.9,0.1-1.5,0.1c-1.3,0-2.5-0.5-3.5-1.5c-0.9-1.1-1.5-2.4-1.5-4.3c0-1.7,0.5-3.2,1.5-4.3
		c0.9-1.1,2.3-1.6,3.7-1.6C146.4,248.3,147.2,248.5,147.9,248.9z M148.6,253.3c-0.1-0.8-0.3-1.5-0.5-2c-0.5-0.9-1.3-1.3-2.5-1.3
		c-0.8,0-1.6,0.3-2.1,0.9c-0.5,0.7-0.9,1.5-0.9,2.4H148.6z"/>
	<path d="M159.5,249.1c0.8,0.7,1.2,1.6,1.5,3.1h-1.9c-0.1-0.7-0.4-1.2-0.8-1.7c-0.4-0.4-1.1-0.7-1.9-0.7c-1.2,0-2,0.5-2.5,1.7
		c-0.3,0.8-0.5,1.7-0.5,2.8c0,1.1,0.3,2,0.7,2.8c0.5,0.8,1.2,1.2,2.3,1.2c0.8,0,1.3-0.3,1.9-0.7c0.4-0.5,0.8-1.1,0.9-1.9h1.9
		c-0.3,1.5-0.7,2.5-1.6,3.2c-0.9,0.7-1.9,1.1-3.2,1.1c-1.5,0-2.7-0.5-3.5-1.6c-0.8-1.1-1.3-2.4-1.3-4c0-2,0.5-3.5,1.5-4.5
		c0.9-1.1,2.1-1.6,3.6-1.6C157.6,248.2,158.7,248.6,159.5,249.1z"/>
</g>
<rect x="447.8" y="136" class="st2" width="72.5" height="72.5"/>
<rect x="465.9" y="35.2" class="st2" width="30.8" height="30.8"/>
</svg>
